<svg width="77" height="56" viewBox="0 0 77 56" fill="none" xmlns="http://www.w3.org/2000/svg">
<g clip-path="url(#clip0)">
<path d="M62.5327 51.4767V0L-4.57764e-05 0V51.4767L62.5327 51.4767Z" fill="#DCE9E1"/>
<path d="M56.5146 44.7259V6.74817L6.02298 6.74817V44.7259H56.5146Z" stroke="#70B2A6" stroke-width="1.05071" stroke-miterlimit="10"/>
<path d="M6.25684 22.4614H55.8922" stroke="#70B2A6" stroke-width="1.05071" stroke-linecap="round" stroke-linejoin="round"/>
<path d="M6.29102 33.7197H55.9264" stroke="#70B2A6" stroke-width="1.05071" stroke-linecap="round" stroke-linejoin="round"/>
<path d="M18.7261 6.89258V44.584" stroke="#70B2A6" stroke-width="1.05071" stroke-linecap="round" stroke-linejoin="round"/>
<path d="M31.2661 6.89258V44.584" stroke="#70B2A6" stroke-width="1.05071" stroke-linecap="round" stroke-linejoin="round"/>
<path d="M43.8066 6.89258V44.584" stroke="#70B2A6" stroke-width="1.05071" stroke-linecap="round" stroke-linejoin="round"/>
<path d="M57.24 5.61597H5.24316V12.6531H57.24V5.61597Z" fill="#70B2A6"/>
<path d="M76.536 40.313C67.1821 30.2971 50.2158 35.0595 41.2769 24.7336L34.5708 39.4199C34.6033 40.1738 34.791 40.9129 35.1224 41.5909C35.4537 42.2689 35.9214 42.8712 36.4962 43.36C40.242 45.795 44.8021 46.9298 49.1047 48.0015C56.4596 49.1494 64.7418 49.6144 69.6512 56.0132C71.7527 51.0328 74.0992 46.1663 76.691 41.4136C76.759 41.3336 76.8093 41.2401 76.8385 41.1392C76.8678 41.0384 76.8753 40.9325 76.8607 40.8285C76.8461 40.7245 76.8095 40.6248 76.7536 40.5359C76.6976 40.4471 76.6235 40.3711 76.536 40.313Z" fill="#00856F"/>
<path d="M73.7857 40.9775C65.4168 32.874 50.7594 36.9743 42.0412 28.8944L37.1948 39.9268C44.6575 47.6101 56.5042 45.246 65.5639 49.6695C66.83 50.1948 68.167 50.8831 68.7685 52.1229L73.9117 41.9547C74.0114 41.8038 74.0536 41.622 74.0304 41.4427C74.0073 41.2633 73.9204 41.0982 73.7857 40.9775Z" fill="#70B3A7"/>
<path d="M60.4708 38.5505C60.0242 36.0682 57.2477 35.8055 55.1805 36.0419C52.2306 36.0892 49.4173 39.0233 50.0478 42.023C51.5897 48.2222 62.2255 44.2768 60.4708 38.5505Z" fill="#DCE9E2"/>
</g>
<defs>
<clipPath id="clip0">
<rect width="76.8565" height="56" fill="white"/>
</clipPath>
</defs>
</svg>
