<svg width="50" height="56" viewBox="0 0 50 56" fill="none" xmlns="http://www.w3.org/2000/svg">
<g clip-path="url(#clip0)">
<path d="M48.1916 20.3706C45.7257 11.4331 38.3986 6.04729 27.2347 4.34555C17.9527 2.92896 6.89363 6.50124 1.96406 18.5206C-3.075 30.8046 2.11233 42.5366 11.5175 47.4913C18.5891 51.2187 31.3886 53.6504 40.1779 47.7992C50.3473 41.0174 50.6917 28.5303 48.1916 20.3706Z" fill="#DCE9E2"/>
<path d="M31.1627 55.9886L9.4461 52.5943C9.2024 52.555 8.98412 52.4209 8.83884 52.2214C8.69355 52.0218 8.63304 51.7729 8.67051 51.529L15.1056 10.3998C15.1449 10.156 15.2789 9.93748 15.4784 9.79183C15.6778 9.64618 15.9267 9.58512 16.1709 9.62192L37.8875 13.0163C38.1312 13.0556 38.3495 13.1896 38.4948 13.3891C38.6401 13.5887 38.7006 13.8376 38.6631 14.0816L32.228 55.2039C32.1903 55.449 32.057 55.6692 31.8574 55.8162C31.6577 55.9633 31.4079 56.0253 31.1627 55.9886Z" fill="#70B3A7"/>
<path d="M30.8423 48.4762L36.1763 14.4139L17.0966 11.4261L11.7626 45.4884L30.8423 48.4762Z" fill="white"/>
<path d="M20.6806 51.7138C21.4415 51.7138 22.0584 51.0969 22.0584 50.3359C22.0584 49.575 21.4415 48.9581 20.6806 48.9581C19.9196 48.9581 19.3027 49.575 19.3027 50.3359C19.3027 51.0969 19.9196 51.7138 20.6806 51.7138Z" fill="#00856F"/>
<path d="M16.3579 32.6204C16.2844 32.6077 16.2091 32.6099 16.1365 32.6269C16.0639 32.6438 15.9955 32.6752 15.9352 32.7191C15.875 32.763 15.8242 32.8186 15.7858 32.8826C15.7475 32.9465 15.7224 33.0175 15.712 33.0913C15.7016 33.1651 15.7061 33.2403 15.7253 33.3123C15.7446 33.3844 15.778 33.4518 15.8238 33.5106C15.8696 33.5695 15.9267 33.6185 15.9918 33.6549C16.0569 33.6912 16.1286 33.7141 16.2028 33.7222C16.7939 33.8043 17.396 33.7522 17.9643 33.5698C18.5326 33.3873 19.0524 33.0792 19.4853 32.6683C19.2986 32.2805 19.168 31.868 19.0975 31.4433C18.7912 31.8696 18.3745 32.2045 17.8922 32.4118C17.41 32.6192 16.8803 32.6913 16.3602 32.6204H16.3579ZM19.6017 29.1417C19.6651 29.4663 19.6751 29.7992 19.6313 30.1271C19.5331 30.8318 19.6244 31.5499 19.8959 32.2075C19.9324 32.3011 19.9781 32.3991 20.0237 32.4881C20.0693 32.5771 20.1149 32.6638 20.1628 32.7459C20.3173 33.0063 20.5002 33.2488 20.708 33.469C21.0668 33.8457 21.4963 34.148 21.972 34.3586C22.4477 34.5692 22.9602 34.6841 23.4803 34.6966C24.0003 34.7091 24.5178 34.619 25.003 34.4314C25.4882 34.2439 25.9318 33.9626 26.3083 33.6036C26.123 33.2155 25.9939 32.8031 25.925 32.3786C25.6193 32.8063 25.2024 33.142 24.7194 33.3495C24.2365 33.557 23.7059 33.6283 23.1853 33.5557C22.6646 33.4831 22.1739 33.2693 21.7661 32.9375C21.3584 32.6058 21.0492 32.1687 20.8723 31.6737C20.8231 31.5363 20.785 31.3952 20.7582 31.2517C20.6936 30.9272 20.6836 30.5941 20.7286 30.2663C20.8242 29.5616 20.7329 28.8442 20.4639 28.1859C20.4252 28.0923 20.3818 27.9942 20.3362 27.9076C20.2906 27.8209 20.245 27.7342 20.1948 27.6475C19.8905 27.1347 19.4748 26.6969 18.9784 26.3664C18.4821 26.0359 17.9178 25.8212 17.3274 25.7382C17.1809 25.7179 17.0325 25.7566 16.9146 25.8458C16.7968 25.935 16.7192 26.0674 16.6989 26.2138C16.6786 26.3602 16.7174 26.5087 16.8066 26.6265C16.8957 26.7444 17.0281 26.822 17.1745 26.8423C17.6945 26.9156 18.1847 27.1294 18.5923 27.4606C18.9999 27.7918 19.3094 28.2279 19.4876 28.7219C19.5383 28.8602 19.5787 29.002 19.6085 29.1462L19.6017 29.1417ZM30.8112 28.7425C30.9544 28.7566 31.0975 28.7148 31.2105 28.6258C31.3235 28.5368 31.3976 28.4075 31.4174 28.265C31.4371 28.1226 31.401 27.978 31.3165 27.8616C31.232 27.7452 31.1057 27.666 30.9641 27.6407C30.3736 27.5585 29.7722 27.6101 29.2044 27.7917C28.6366 27.9734 28.1169 28.2804 27.6838 28.69C27.8691 29.0788 27.9981 29.4921 28.067 29.9172C28.3742 29.4919 28.791 29.158 29.2732 28.9511C29.7553 28.7442 30.2845 28.6721 30.8044 28.7425H30.8112ZM26.4177 30.1111C26.4835 30.4356 26.4935 30.7688 26.4474 31.0966C26.3511 31.8015 26.4432 32.5193 26.7143 33.177C26.7538 33.2728 26.7972 33.3663 26.8443 33.4576C26.8862 33.5459 26.9326 33.6319 26.9835 33.7154C27.287 34.229 27.7025 34.6676 28.1989 34.9986C28.6953 35.3296 29.26 35.5443 29.8509 35.627C29.9946 35.6427 30.1389 35.6018 30.253 35.513C30.3672 35.4242 30.4423 35.2945 30.4624 35.1513C30.4826 35.008 30.4462 34.8626 30.361 34.7458C30.2758 34.6289 30.1485 34.5498 30.006 34.5252C29.4851 34.451 28.9941 34.2364 28.5859 33.9045C28.1776 33.5725 27.8673 33.1358 27.6883 32.6409C27.6403 32.5022 27.6014 32.3605 27.572 32.2166C27.5063 31.8922 27.4963 31.559 27.5424 31.2312C27.6382 30.5265 27.5469 29.809 27.2777 29.1508C27.2367 29.0573 27.1956 28.9592 27.15 28.8702C27.1044 28.7812 27.0588 28.6968 27.0063 28.6124C26.7025 28.0996 26.287 27.6617 25.7908 27.3314C25.2946 27.0011 24.7304 26.7868 24.14 26.7044C23.5497 26.622 22.9483 26.6736 22.3806 26.8555C21.8129 27.0373 21.2935 27.3447 20.8609 27.7547C21.0456 28.1434 21.1761 28.5555 21.2487 28.9797C21.5548 28.5528 21.9718 28.2177 22.4547 28.0107C22.9375 27.8037 23.4677 27.7326 23.988 27.8052C24.5083 27.8778 24.9989 28.0912 25.4066 28.4225C25.8144 28.7537 26.1238 29.1902 26.3014 29.6846C26.3495 29.8241 26.3884 29.9666 26.4177 30.1111Z" fill="#008071"/>
<path d="M24.2303 1.40439e-05H4.26567C3.82341 1.40439e-05 3.39927 0.175699 3.08655 0.48842C2.77383 0.801141 2.59814 1.22528 2.59814 1.66754V13.6345C2.59814 14.0767 2.77383 14.5009 3.08655 14.8136C3.39927 15.1263 3.82341 15.302 4.26567 15.302H12.293L17.7678 20.5486L16.9877 15.302H24.2372C24.6794 15.302 25.1035 15.1263 25.4163 14.8136C25.729 14.5009 25.9047 14.0767 25.9047 13.6345V1.66754C25.9047 1.44798 25.8613 1.23058 25.7771 1.02782C25.6929 0.825058 25.5694 0.640927 25.4139 0.485994C25.2583 0.33106 25.0736 0.208374 24.8705 0.124977C24.6674 0.0415797 24.4499 -0.00088702 24.2303 1.40439e-05Z" fill="#00856F"/>
<path d="M8.59961 7.97719L11.4533 10.8309L18.0618 4.22241" stroke="white" stroke-width="0.912461" stroke-linecap="round" stroke-linejoin="round"/>
</g>
<defs>
<clipPath id="clip0">
<rect width="49.4896" height="56" fill="white"/>
</clipPath>
</defs>
</svg>
