<svg width="58" height="56" viewBox="0 0 58 56" fill="none" xmlns="http://www.w3.org/2000/svg">
<g clip-path="url(#clip0)">
<path d="M38.032 4.46997L34.0024 10.0069" stroke="#0D8570" stroke-width="0.867511" stroke-linecap="round" stroke-linejoin="round"/>
<path d="M28.1944 7.61032L27.0645 0.433838" stroke="#0D8570" stroke-width="0.867511" stroke-linecap="round" stroke-linejoin="round"/>
<path d="M38.123 14.8388L45.2995 13.7089" stroke="#0D8570" stroke-width="0.867511" stroke-linecap="round" stroke-linejoin="round"/>
<path d="M57.5206 41.1309C54.2566 40.0466 43.4973 37.1404 36.7242 35.2752C34.3277 34.6246 31.6905 34.3644 29.3655 35.2449C28.0838 35.7307 26.9799 36.5874 25.9107 37.4375C25.0215 38.138 24.3101 38.639 23.4274 39.346C22.724 39.8773 21.9142 40.2505 21.0533 40.4402C20.1925 40.63 19.3008 40.6318 18.4392 40.4456C17.5544 40.2483 15.5699 39.4805 14.6677 39.3851C14.5127 39.3546 14.3532 39.3555 14.1985 39.3879C14.0439 39.4204 13.8974 39.4835 13.7677 39.5738C13.5291 39.7776 13.5009 40.2244 13.7807 40.3719C13.0325 40.0639 9.10047 38.8754 8.31971 38.6607C6.50662 38.1706 5.78008 38.7128 5.5979 39.255C5.47211 39.6323 6.91868 40.2916 7.25918 40.489C6.12274 40.001 3.57226 39.2853 2.51606 39.0728C0.702967 38.7106 -0.611312 39.6171 0.295237 40.1572C2.96283 41.7577 8.80986 45.3167 11.4644 46.9411C8.25899 46.9259 5.52633 46.9801 3.17971 47.4096C1.5618 47.7132 1.01961 48.3768 0.837431 48.7976C0.820401 48.842 0.813401 48.8897 0.816929 48.9371C0.820457 48.9846 0.834427 49.0307 0.857841 49.0722C0.881254 49.1136 0.913533 49.1493 0.952371 49.1769C0.991208 49.2044 1.03564 49.223 1.0825 49.2313C3.04958 49.5675 13.1539 51.2895 16.5177 51.6452C19.8815 52.0009 21.1068 52.0074 23.3472 51.5671C27.9016 50.6692 32.5688 47.5006 36.5767 44.395C44.2238 48.8561 50.1446 52.3414 56.6769 55.9892C57.1237 49.8451 57.1584 47.8997 57.5206 41.1309Z" fill="#DCE9E2"/>
<path d="M22.9158 40.1636C20.2395 42.534 17.7108 44.4708 15.0301 46.8412C14.6137 47.2099 14.1626 47.7738 14.4359 48.2553C14.5514 48.4292 14.7228 48.5585 14.9217 48.6218C15.6873 48.9059 16.5396 48.6218 17.2792 48.2683C19.3742 47.2815 21.2263 45.8132 23.3626 44.9175C26.0042 43.8093 29.1359 43.5339 31.1702 41.5126" stroke="#70B3A7" stroke-width="0.867511" stroke-linecap="round" stroke-linejoin="round"/>
<path d="M14.0298 40.6625C15.5653 41.3413 17.5519 42.3129 19.0874 42.9917" stroke="#70B3A7" stroke-width="0.867511" stroke-linecap="round" stroke-linejoin="round"/>
<path d="M7.37402 40.8424C10.9547 42.61 13.1451 43.6618 16.5458 45.0455" stroke="#70B3A7" stroke-width="0.867511" stroke-linecap="round" stroke-linejoin="round"/>
<path d="M11.1567 47.1949C12.2093 47.1255 13.2626 47.1038 14.3166 47.1298" stroke="#70B3A7" stroke-width="0.867511" stroke-linecap="round" stroke-linejoin="round"/>
<path d="M14.9342 13.1841C11.0608 12.18 6.61698 14.7023 5.48488 18.5323C4.35278 22.3624 6.33721 26.5221 8.95492 29.5931C11.5726 32.6641 16.049 36.3597 19.3911 38.8321C22.4946 36.0734 24.3316 34.7526 27.4481 31.6751C30.3976 28.7624 33.0023 25.2555 33.6117 21.1544C33.9588 18.8208 33.6118 16.2312 31.9895 14.5157C30.1721 12.5855 27.062 12.232 24.6157 13.273C22.3905 14.223 20.8203 16.0209 20.3106 18.0899C19.8762 16.8994 19.1605 15.8316 18.2243 14.9774C17.2882 14.1232 16.1594 13.508 14.9342 13.1841Z" fill="#70B3A7"/>
</g>
<defs>
<clipPath id="clip0">
<rect width="57.5203" height="56" fill="white"/>
</clipPath>
</defs>
</svg>
