<svg width="64" height="43" viewBox="0 0 64 43" fill="none" xmlns="http://www.w3.org/2000/svg">
<path d="M46.9476 3.11243C37.5217 3.11243 29.8867 10.0765 29.8867 18.6652C29.8867 24.4833 33.3983 29.553 38.5733 32.22L34.1007 42.6217L45.0439 34.1199C45.6746 34.1844 46.3081 34.2171 46.942 34.2179C56.3679 34.2179 64.0029 27.2538 64.0029 18.6633C64.0029 10.0728 56.3735 3.11243 46.9476 3.11243Z" fill="#70B3A7"/>
<path d="M33.6671 0H2.5875C1.90125 0 1.24311 0.272611 0.757862 0.757862C0.272611 1.24311 0 1.90125 0 2.5875L0 21.2194C0 21.9056 0.272611 22.5637 0.757862 23.049C1.24311 23.5343 1.90125 23.8069 2.5875 23.8069H15.0814L25.7013 34.0903L22.3745 23.8069H33.6578C34.3441 23.8069 35.0022 23.5343 35.4875 23.049C35.9727 22.5637 36.2453 21.9056 36.2453 21.2194V2.5875C36.2454 1.90285 35.974 1.24611 35.4908 0.761121C35.0075 0.276135 34.3517 0.00244518 33.6671 0V0Z" fill="#DCE9E2"/>
<path d="M18.1285 19.5376C22.9781 19.5376 26.9094 15.6062 26.9094 10.7567C26.9094 5.90716 22.9781 1.97583 18.1285 1.97583C13.279 1.97583 9.34766 5.90716 9.34766 10.7567C9.34766 15.6062 13.279 19.5376 18.1285 19.5376Z" stroke="#0D8570" stroke-width="0.739286" stroke-linecap="round" stroke-linejoin="round"/>
<path d="M20.7031 13.3959L26.8799 19.5708" stroke="#0D8570" stroke-width="0.739286" stroke-linecap="round" stroke-linejoin="round"/>
<path d="M40.0508 27.4682L46.2756 9.74194L53.3099 27.4682" stroke="#DCE9E2" stroke-width="0.739286" stroke-linecap="round" stroke-linejoin="round"/>
<path d="M41.5391 20.1604H51.281" stroke="#DCE9E2" stroke-width="0.739286" stroke-linecap="round" stroke-linejoin="round"/>
</svg>
