<svg width="44" height="64" viewBox="0 0 44 64" fill="none" xmlns="http://www.w3.org/2000/svg">
<g clip-path="url(#clip0)">
<path d="M11.247 39.8258C10.773 40.0103 12.0286 39.977 11.247 39.8258V39.8258Z" fill="#CDB18E"/>
<path d="M43.7432 9.19394L4.03516 6.271L0.00100902 61.0747L39.7091 63.9976L43.7432 9.19394Z" fill="#DCEAE3"/>
<path d="M22.2454 22.7034C24.7885 22.7034 26.8501 20.6418 26.8501 18.0986C26.8501 15.5555 24.7885 13.4939 22.2454 13.4939C19.7022 13.4939 17.6406 15.5555 17.6406 18.0986C17.6406 20.6418 19.7022 22.7034 22.2454 22.7034Z" fill="white"/>
<path d="M25.2567 17.4683L23.3143 17.3248L23.4578 15.3747C23.4635 15.2942 23.437 15.2148 23.3841 15.1538C23.3313 15.0928 23.2564 15.0552 23.1759 15.0493L22.1279 14.9724C22.0474 14.9668 21.9679 14.9933 21.9069 15.0461C21.8459 15.099 21.8084 15.1738 21.8025 15.2543L21.6615 17.1941L19.7269 17.0608C19.6468 17.0552 19.5677 17.0813 19.5068 17.1336C19.4458 17.1859 19.408 17.2601 19.4014 17.3401L19.3246 18.3882C19.3208 18.4658 19.3469 18.5419 19.3974 18.6009C19.4478 18.66 19.519 18.6975 19.5962 18.7059L21.5385 18.8494L21.395 20.7892C21.3919 20.8291 21.3967 20.8693 21.4092 20.9074C21.4217 20.9454 21.4417 20.9806 21.4679 21.0109C21.4941 21.0411 21.5261 21.0659 21.562 21.0837C21.5979 21.1015 21.6369 21.1121 21.6769 21.1146L22.725 21.1915C22.8051 21.1994 22.8851 21.1753 22.9475 21.1244C23.0099 21.0735 23.0497 21 23.0581 20.9199L23.199 18.9776L25.1414 19.121C25.2214 19.1267 25.3005 19.1006 25.3615 19.0483C25.4224 18.996 25.4602 18.9218 25.4668 18.8417L25.5437 17.7937C25.5468 17.7534 25.5418 17.7128 25.529 17.6744C25.5161 17.636 25.4957 17.6006 25.469 17.5703C25.4422 17.5399 25.4096 17.5153 25.3732 17.4978C25.3367 17.4802 25.2971 17.4702 25.2567 17.4683Z" fill="#70B3A7"/>
<path d="M11.4453 9.71942L11.5196 8.69444C11.557 8.19335 11.7917 7.72759 12.1722 7.39943C12.5527 7.07128 13.048 6.90758 13.5491 6.94428L33.8643 8.45613C34.3632 8.4929 34.8274 8.72563 35.1553 9.10348C35.4832 9.48134 35.6483 9.97362 35.6144 10.4728L35.5376 11.4978L11.4453 9.71942Z" fill="#70B3A7"/>
<path d="M15.7695 8.21786L15.8438 7.19287C15.9207 6.14739 16.5357 5.34278 17.2173 5.39915L30.4627 6.37545C31.1417 6.4267 31.6312 7.31331 31.5543 8.35623L31.48 9.38122L15.7695 8.21786Z" fill="#70B3A7"/>
<path d="M24.5474 -2.74274e-06C23.8529 -0.0508363 23.159 0.10539 22.5533 0.448922C21.9477 0.792454 21.4574 1.30786 21.1447 1.92998C20.8319 2.5521 20.7107 3.25299 20.7962 3.94403C20.8818 4.63507 21.1703 5.28522 21.6254 5.81228C22.0804 6.33933 22.6815 6.71963 23.3527 6.90508C24.0238 7.09053 24.7349 7.0728 25.396 6.85414C26.0571 6.63547 26.6385 6.2257 27.0667 5.67662C27.4949 5.12754 27.7507 4.46382 27.8017 3.76938C27.8356 3.30818 27.7783 2.84483 27.6331 2.40578C27.4878 1.96674 27.2576 1.5606 26.9554 1.21057C26.6532 0.860537 26.285 0.573467 25.8718 0.365755C25.4586 0.158042 25.0086 0.0337571 24.5474 -2.74274e-06ZM24.1425 5.51697C23.7478 5.48751 23.3708 5.34168 23.0589 5.09792C22.7471 4.85416 22.5146 4.52342 22.3907 4.14752C22.2669 3.77161 22.2573 3.36743 22.3631 2.98606C22.469 2.60469 22.6855 2.26327 22.9854 2.00496C23.2852 1.74665 23.655 1.58306 24.0478 1.53486C24.4406 1.48666 24.8389 1.55603 25.1924 1.73418C25.5458 1.91234 25.8384 2.19128 26.0333 2.53575C26.2282 2.88022 26.3166 3.27474 26.2873 3.66944C26.2678 3.9316 26.1969 4.18735 26.0786 4.42209C25.9602 4.65683 25.7968 4.86596 25.5977 5.03753C25.3985 5.2091 25.1675 5.33975 24.9178 5.42201C24.6681 5.50428 24.4047 5.53654 24.1425 5.51697Z" fill="#70B3A7"/>
<path d="M13.6226 26.3676L7.55469 25.9429L7.12993 32.0108L13.1978 32.4355L13.6226 26.3676Z" fill="#70B3A7"/>
<path d="M17.4727 26.5035L26.2388 27.0596" stroke="#70B3A7" stroke-width="1.02498" stroke-linecap="round" stroke-linejoin="round"/>
<path d="M17.0234 32.5535L36.5699 33.9936" stroke="#70B3A7" stroke-width="1.02498" stroke-linecap="round" stroke-linejoin="round"/>
<path d="M17.2461 29.5272L36.7925 30.9673" stroke="#70B3A7" stroke-width="1.02498" stroke-linecap="round" stroke-linejoin="round"/>
<path d="M9.00781 29.5246L10.3659 30.9007L14.1609 27.2876" stroke="#0D8570" stroke-width="1.02498" stroke-linecap="round" stroke-linejoin="round"/>
<path d="M12.3445 38.5729L6.29297 38.1274L5.84751 44.179L11.899 44.6244L12.3445 38.5729Z" fill="#70B3A7"/>
<path d="M16.3164 38.7341L23.0403 39.0954" stroke="#70B3A7" stroke-width="1.02498" stroke-linecap="round" stroke-linejoin="round"/>
<path d="M15.8711 44.7866L35.415 46.2242" stroke="#70B3A7" stroke-width="1.02498" stroke-linecap="round" stroke-linejoin="round"/>
<path d="M16.0898 41.7604L35.6337 43.2005" stroke="#70B3A7" stroke-width="1.02498" stroke-linecap="round" stroke-linejoin="round"/>
<path d="M7.84766 41.7553L9.20576 43.1339L13.0008 39.5183" stroke="#0D8570" stroke-width="1.02498" stroke-linecap="round" stroke-linejoin="round"/>
<path d="M11.4031 50.6841L5.35156 50.2386L4.9061 56.2902L10.9576 56.7356L11.4031 50.6841Z" fill="#70B3A7"/>
<path d="M15.375 50.8444L24.0336 51.2595" stroke="#70B3A7" stroke-width="1.02498" stroke-linecap="round" stroke-linejoin="round"/>
<path d="M14.9297 56.8969L34.4761 58.3344" stroke="#70B3A7" stroke-width="1.02498" stroke-linecap="round" stroke-linejoin="round"/>
<path d="M15.1523 53.8706L34.6988 55.3107" stroke="#70B3A7" stroke-width="1.02498" stroke-linecap="round" stroke-linejoin="round"/>
<path d="M6.91016 53.8654L8.26826 55.244L12.0633 51.6284" stroke="#0D8570" stroke-width="1.02498" stroke-linecap="round" stroke-linejoin="round"/>
</g>
<defs>
<clipPath id="clip0">
<rect width="43.7463" height="64" fill="white"/>
</clipPath>
</defs>
</svg>
