<?xml version="1.0" encoding="utf-8"?>
<!-- Generator: Adobe Illustrator 24.3.0, SVG Export Plug-In . SVG Version: 6.00 Build 0)  -->
<svg version="1.1" id="Layer_1" xmlns="http://www.w3.org/2000/svg" xmlns:xlink="http://www.w3.org/1999/xlink" x="0px" y="0px"
	 viewBox="0 0 80 80" style="enable-background:new 0 0 80 80;" xml:space="preserve">
<style type="text/css">
	.st0{opacity:0;fill:#223659;}
	.st1{fill:#223659;}
</style>
<g>
	<rect class="st0" width="80" height="80"/>
	<path class="st1" d="M15,39c-0.8,0-1.6,0.3-2.1,0.9C12.3,40.4,12,41.2,12,42s0.3,1.6,0.9,2.1c0.6,0.6,1.3,0.9,2.1,0.9
		c0.8,0,1.6-0.3,2.1-0.9c0.6-0.6,0.9-1.3,0.9-2.1c0-0.8-0.3-1.6-0.9-2.1C16.6,39.3,15.8,39,15,39L15,39z M15,43
		c-0.4,0-0.8-0.2-0.9-0.6c-0.2-0.4-0.1-0.8,0.2-1.1c0.3-0.3,0.7-0.4,1.1-0.2c0.4,0.2,0.6,0.5,0.6,0.9C16,42.6,15.6,43,15,43z
		 M68.6,42.4c-0.7-0.4-1.6-0.7-2.5-0.7c-0.9,0-1.7,0.2-2.5,0.6l-10.9,6.1c-0.3-1-1-1.9-1.8-2.5c-0.9-0.6-1.9-1-2.9-1h-7.8
		c-2.5,0-4.8-1-6.5-2.7c-2.1-2.1-5-3.3-7.9-3.3H21v-2c0-0.3-0.1-0.5-0.3-0.7S20.3,36,20,36H10c-0.6,0-1,0.4-1,1v30
		c0,0.3,0.1,0.5,0.3,0.7C9.5,67.9,9.7,68,10,68h10c0.3,0,0.5-0.1,0.7-0.3c0.2-0.2,0.3-0.4,0.3-0.7v-2h19c2.8,0,5.6-0.7,8-2.1
		L68.5,51c1.5-0.9,2.5-2.5,2.5-4.3c0-0.9-0.2-1.7-0.6-2.5C69.9,43.5,69.3,42.9,68.6,42.4L68.6,42.4z M19,66h-8V38h8V66z M67.5,49.3
		L47,61.1c-2.1,1.2-4.5,1.9-7,1.9H21V41h4.8c2.5,0,4.8,1,6.5,2.7c2.1,2.1,5,3.3,7.9,3.3H48c0.8,0,1.6,0.3,2.1,0.9
		c0.6,0.6,0.9,1.3,0.9,2.1v0c0,0.8-0.3,1.6-0.9,2.1C49.6,52.7,48.8,53,48,53H36c-0.6,0-1,0.4-1,1c0,0.6,0.4,1,1,1h12
		c1.2,0,2.4-0.4,3.3-1.3c0.9-0.8,1.5-1.9,1.7-3.1l11.7-6.5c0.9-0.5,2-0.5,2.9,0c0.9,0.5,1.5,1.5,1.5,2.5
		C69,47.8,68.4,48.7,67.5,49.3L67.5,49.3z M44.8,32H45v1c0,0.6,0.4,1,1,1c0.6,0,1-0.4,1-1v-1h0.2c1.2,0,2.4-0.6,3.1-1.6
		c0.7-1,0.9-2.3,0.4-3.5c-0.4-1.2-1.4-2-2.6-2.4L47,24.2V20h0.2c0.5,0,0.9,0.2,1.3,0.5c0.3,0.3,0.5,0.8,0.5,1.3V22c0,0.6,0.4,1,1,1
		c0.6,0,1-0.4,1-1v-0.2c0-1-0.4-2-1.1-2.7c-0.7-0.7-1.7-1.1-2.7-1.1H47v-1c0-0.6-0.4-1-1-1c-0.6,0-1,0.4-1,1v1h-0.2
		c-1.2,0-2.4,0.6-3.1,1.6c-0.7,1-0.9,2.3-0.4,3.5c0.4,1.2,1.4,2,2.6,2.4l1.1,0.3l0,4.2h-0.2c-0.5,0-0.9-0.2-1.3-0.5
		c-0.3-0.3-0.5-0.8-0.5-1.3V28c0-0.6-0.4-1-1-1c-0.6,0-1,0.4-1,1v0.2c0,1,0.4,2,1.1,2.7C42.8,31.6,43.8,32,44.8,32z M44.4,23.6
		c-0.6-0.1-1-0.6-1.3-1.1c-0.2-0.6-0.1-1.2,0.2-1.7c0.3-0.5,0.9-0.8,1.5-0.8H45v3.7L44.4,23.6z M47,26.3l0.6,0.2l0,0
		c0.6,0.1,1,0.6,1.3,1.1c0.2,0.6,0.1,1.2-0.2,1.7c-0.3,0.5-0.9,0.8-1.5,0.8H47V26.3z M46,38c3.4,0,6.8-1.4,9.2-3.8
		c2.4-2.4,3.8-5.7,3.8-9.2s-1.4-6.8-3.8-9.2S49.4,12,46,12c-3.4,0-6.8,1.4-9.2,3.8C34.4,18.2,33,21.6,33,25c0,3.4,1.4,6.8,3.8,9.2
		C39.2,36.6,42.6,38,46,38z M46,14c2.9,0,5.7,1.2,7.8,3.2c2.1,2.1,3.2,4.9,3.2,7.8c0,2.9-1.2,5.7-3.2,7.8C51.7,34.8,48.9,36,46,36
		c-2.9,0-5.7-1.2-7.8-3.2C36.2,30.7,35,27.9,35,25c0-2.9,1.2-5.7,3.2-7.8C40.3,15.2,43.1,14,46,14z M61,25c0-0.6,0.4-1,1-1h7
		c0.6,0,1,0.4,1,1c0,0.6-0.4,1-1,1h-7C61.4,26,61,25.6,61,25z M61.2,21.6c-0.3-0.4-0.2-1.1,0.2-1.4l4-3c0.4-0.3,1.1-0.2,1.4,0.2
		c0.3,0.4,0.2,1.1-0.2,1.4l-4,3C62.4,22,62.1,22,61.9,22C61.6,22,61.4,21.8,61.2,21.6z M62.6,28.2l4,3c0.4,0.3,0.5,1,0.2,1.4
		c-0.3,0.4-1,0.5-1.4,0.2l-4-3c-0.4-0.3-0.5-1-0.2-1.4C61.5,28,62.2,27.9,62.6,28.2z M22,25c0-0.6,0.4-1,1-1h7c0.6,0,1,0.4,1,1
		c0,0.6-0.4,1-1,1h-7C22.4,26,22,25.6,22,25z M25.4,18.8c-0.4-0.3-0.5-1-0.2-1.4c0.3-0.4,1-0.5,1.4-0.2l4,3c0.4,0.3,0.5,1,0.2,1.4
		c-0.3,0.4-1,0.5-1.4,0.2L25.4,18.8z M30.8,28.4c0.3,0.4,0.2,1.1-0.2,1.4l-4,3c-0.4,0.3-1.1,0.2-1.4-0.2c-0.3-0.4-0.2-1.1,0.2-1.4
		l4-3c0.2-0.2,0.5-0.2,0.7-0.2C30.4,28,30.6,28.2,30.8,28.4z"/>
</g>
</svg>
