<?xml version="1.0" encoding="utf-8"?>
<!-- Generator: Adobe Illustrator 24.3.0, SVG Export Plug-In . SVG Version: 6.00 Build 0)  -->
<svg version="1.1" id="Layer_1" xmlns="http://www.w3.org/2000/svg" xmlns:xlink="http://www.w3.org/1999/xlink" x="0px" y="0px"
	 viewBox="0 0 80 80" style="enable-background:new 0 0 80 80;" xml:space="preserve">
<style type="text/css">
	.st0{opacity:0;fill:none;}
	.st1{fill:#223659;}
</style>
<g>
	<rect y="0" class="st0" width="80" height="80"/>
	<g>
		<path class="st1" d="M43.7,40.2c-0.9-0.8-2-1.3-3-1.3h-1.4c-0.5,0-1.1-0.2-1.5-0.6c-0.4-0.4-0.6-1-0.5-1.6c0.1-1,1-1.8,2.1-1.8
			h1.6c0.7,0,1.4,0.5,1.4,1.2c0,0,0,0,0.1,0h1.8l0.1-0.1c-0.2-1.7-1.5-3-3.1-3.2l-0.4,0v-2c0-0.1-0.1-0.1-0.1-0.1h-1.8
			c-0.1,0-0.1,0.1-0.1,0.1v2l-0.4,0.1c-2.1,0.4-3.6,2.3-3.3,4.4c0.2,2,2.1,3.7,4.2,3.7h1.2c0.6,0,1.1,0.2,1.5,0.6
			c0.4,0.4,0.6,1,0.5,1.6c-0.1,1-1,1.8-2.1,1.8H39c-0.7,0-1.3-0.5-1.4-1.2c0,0,0,0-0.1,0h-1.8l-0.1,0.1c0.2,1.7,1.5,3,3.2,3.2
			l0.4,0.1v2c0,0.1,0.1,0.1,0.1,0.1h1.8c0.1,0,0.1-0.1,0.1-0.1V47l0.3-0.1c1.8-0.4,3.2-1.9,3.4-3.6C44.9,42.2,44.5,41.1,43.7,40.2z
			 M46.3,64l-6.1-4.2c-0.3-0.2-0.6-0.2-1-0.1c-0.3,0.1-0.6,0.4-0.6,0.9v2.8l-0.4,0C26,62.5,16.4,52.2,16.4,40c0-0.7-0.6-1.2-1.2-1.2
			c-0.7,0-1.3,0.6-1.3,1.2c0,13.6,10.7,25.1,24.3,26h0.4v3c0,0.4,0.2,0.7,0.5,0.9c0.3,0.2,0.7,0.1,1-0.1l6.2-4.2
			c0.3-0.2,0.5-0.4,0.5-0.8C46.7,64.5,46.6,64.2,46.3,64z M41.8,14l-0.4,0v-3c0-0.4-0.2-0.7-0.5-0.9c-0.3-0.2-0.7-0.1-1,0.1
			l-6.1,4.2c-0.3,0.2-0.5,0.5-0.4,0.9c0,0.3,0.2,0.6,0.4,0.7l6.2,4.2c0.3,0.2,0.7,0.2,1,0.1c0.3-0.1,0.6-0.4,0.6-0.9v-2.8l0.4,0
			C54,17.5,63.6,27.8,63.6,40c0,0.7,0.6,1.3,1.3,1.3c0.7,0,1.2-0.6,1.2-1.3C66.1,26.4,55.4,14.9,41.8,14z M43.7,40.2
			c-0.9-0.8-2-1.3-3-1.3h-1.4c-0.5,0-1.1-0.2-1.5-0.6c-0.4-0.4-0.6-1-0.5-1.6c0.1-1,1-1.8,2.1-1.8h1.6c0.7,0,1.4,0.5,1.4,1.2
			c0,0,0,0,0.1,0h1.8l0.1-0.1c-0.2-1.7-1.5-3-3.1-3.2l-0.4,0v-2c0-0.1-0.1-0.1-0.1-0.1h-1.8c-0.1,0-0.1,0.1-0.1,0.1v2l-0.4,0.1
			c-2.1,0.4-3.6,2.3-3.3,4.4c0.2,2,2.1,3.7,4.2,3.7h1.2c0.6,0,1.1,0.2,1.5,0.6c0.4,0.4,0.6,1,0.5,1.6c-0.1,1-1,1.8-2.1,1.8H39
			c-0.7,0-1.3-0.5-1.4-1.2c0,0,0,0-0.1,0h-1.8l-0.1,0.1c0.2,1.7,1.5,3,3.2,3.2l0.4,0.1v2c0,0.1,0.1,0.1,0.1,0.1h1.8
			c0.1,0,0.1-0.1,0.1-0.1V47l0.3-0.1c1.8-0.4,3.2-1.9,3.4-3.6C44.9,42.2,44.5,41.1,43.7,40.2z M43.7,40.2c-0.9-0.8-2-1.3-3-1.3h-1.4
			c-0.5,0-1.1-0.2-1.5-0.6c-0.4-0.4-0.6-1-0.5-1.6c0.1-1,1-1.8,2.1-1.8h1.6c0.7,0,1.4,0.5,1.4,1.2c0,0,0,0,0.1,0h1.8l0.1-0.1
			c-0.2-1.7-1.5-3-3.1-3.2l-0.4,0v-2c0-0.1-0.1-0.1-0.1-0.1h-1.8c-0.1,0-0.1,0.1-0.1,0.1v2l-0.4,0.1c-2.1,0.4-3.6,2.3-3.3,4.4
			c0.2,2,2.1,3.7,4.2,3.7h1.2c0.6,0,1.1,0.2,1.5,0.6c0.4,0.4,0.6,1,0.5,1.6c-0.1,1-1,1.8-2.1,1.8H39c-0.7,0-1.3-0.5-1.4-1.2
			c0,0,0,0-0.1,0h-1.8l-0.1,0.1c0.2,1.7,1.5,3,3.2,3.2l0.4,0.1v2c0,0.1,0.1,0.1,0.1,0.1h1.8c0.1,0,0.1-0.1,0.1-0.1V47l0.3-0.1
			c1.8-0.4,3.2-1.9,3.4-3.6C44.9,42.2,44.5,41.1,43.7,40.2z M43.7,40.2c-0.9-0.8-2-1.3-3-1.3h-1.4c-0.5,0-1.1-0.2-1.5-0.6
			c-0.4-0.4-0.6-1-0.5-1.6c0.1-1,1-1.8,2.1-1.8h1.6c0.7,0,1.4,0.5,1.4,1.2c0,0,0,0,0.1,0h1.8l0.1-0.1c-0.2-1.7-1.5-3-3.1-3.2l-0.4,0
			v-2c0-0.1-0.1-0.1-0.1-0.1h-1.8c-0.1,0-0.1,0.1-0.1,0.1v2l-0.4,0.1c-2.1,0.4-3.6,2.3-3.3,4.4c0.2,2,2.1,3.7,4.2,3.7h1.2
			c0.6,0,1.1,0.2,1.5,0.6c0.4,0.4,0.6,1,0.5,1.6c-0.1,1-1,1.8-2.1,1.8H39c-0.7,0-1.3-0.5-1.4-1.2c0,0,0,0-0.1,0h-1.8l-0.1,0.1
			c0.2,1.7,1.5,3,3.2,3.2l0.4,0.1v2c0,0.1,0.1,0.1,0.1,0.1h1.8c0.1,0,0.1-0.1,0.1-0.1V47l0.3-0.1c1.8-0.4,3.2-1.9,3.4-3.6
			C44.9,42.2,44.5,41.1,43.7,40.2z M43.7,40.2c-0.9-0.8-2-1.3-3-1.3h-1.4c-0.5,0-1.1-0.2-1.5-0.6c-0.4-0.4-0.6-1-0.5-1.6
			c0.1-1,1-1.8,2.1-1.8h1.6c0.7,0,1.4,0.5,1.4,1.2c0,0,0,0,0.1,0h1.8l0.1-0.1c-0.2-1.7-1.5-3-3.1-3.2l-0.4,0v-2
			c0-0.1-0.1-0.1-0.1-0.1h-1.8c-0.1,0-0.1,0.1-0.1,0.1v2l-0.4,0.1c-2.1,0.4-3.6,2.3-3.3,4.4c0.2,2,2.1,3.7,4.2,3.7h1.2
			c0.6,0,1.1,0.2,1.5,0.6c0.4,0.4,0.6,1,0.5,1.6c-0.1,1-1,1.8-2.1,1.8H39c-0.7,0-1.3-0.5-1.4-1.2c0,0,0,0-0.1,0h-1.8l-0.1,0.1
			c0.2,1.7,1.5,3,3.2,3.2l0.4,0.1v2c0,0.1,0.1,0.1,0.1,0.1h1.8c0.1,0,0.1-0.1,0.1-0.1V47l0.3-0.1c1.8-0.4,3.2-1.9,3.4-3.6
			C44.9,42.2,44.5,41.1,43.7,40.2z M43.7,40.2c-0.9-0.8-2-1.3-3-1.3h-1.4c-0.5,0-1.1-0.2-1.5-0.6c-0.4-0.4-0.6-1-0.5-1.6
			c0.1-1,1-1.8,2.1-1.8h1.6c0.7,0,1.4,0.5,1.4,1.2c0,0,0,0,0.1,0h1.8l0.1-0.1c-0.2-1.7-1.5-3-3.1-3.2l-0.4,0v-2
			c0-0.1-0.1-0.1-0.1-0.1h-1.8c-0.1,0-0.1,0.1-0.1,0.1v2l-0.4,0.1c-2.1,0.4-3.6,2.3-3.3,4.4c0.2,2,2.1,3.7,4.2,3.7h1.2
			c0.6,0,1.1,0.2,1.5,0.6c0.4,0.4,0.6,1,0.5,1.6c-0.1,1-1,1.8-2.1,1.8H39c-0.7,0-1.3-0.5-1.4-1.2c0,0,0,0-0.1,0h-1.8l-0.1,0.1
			c0.2,1.7,1.5,3,3.2,3.2l0.4,0.1v2c0,0.1,0.1,0.1,0.1,0.1h1.8c0.1,0,0.1-0.1,0.1-0.1V47l0.3-0.1c1.8-0.4,3.2-1.9,3.4-3.6
			C44.9,42.2,44.5,41.1,43.7,40.2z M40,24c-8.8,0-16,7.2-16,16s7.2,16,16,16c8.8,0,16-7.2,16-16S48.8,24,40,24z M40,53.5
			c-7.5,0-13.5-6.1-13.5-13.5S32.5,26.5,40,26.5c7.5,0,13.5,6.1,13.5,13.5S47.5,53.5,40,53.5z M40.7,38.9h-1.4
			c-0.5,0-1.1-0.2-1.5-0.6c-0.4-0.4-0.6-1-0.5-1.6c0.1-1,1-1.8,2.1-1.8h1.6c0.7,0,1.4,0.5,1.4,1.2c0,0,0,0,0.1,0h1.8l0.1-0.1
			c-0.2-1.7-1.5-3-3.1-3.2l-0.4,0v-2c0-0.1-0.1-0.1-0.1-0.1h-1.8c-0.1,0-0.1,0.1-0.1,0.1v2l-0.4,0.1c-2.1,0.4-3.6,2.3-3.3,4.4
			c0.2,2,2.1,3.7,4.2,3.7h1.2c0.6,0,1.1,0.2,1.5,0.6c0.4,0.4,0.6,1,0.5,1.6c-0.1,1-1,1.8-2.1,1.8H39c-0.7,0-1.3-0.5-1.4-1.2
			c0,0,0,0-0.1,0h-1.8l-0.1,0.1c0.2,1.7,1.5,3,3.2,3.2l0.4,0.1v2c0,0.1,0.1,0.1,0.1,0.1h1.8c0.1,0,0.1-0.1,0.1-0.1V47l0.3-0.1
			c1.8-0.4,3.2-1.9,3.4-3.6c0.1-1.2-0.2-2.3-1-3.1C42.9,39.4,41.7,38.9,40.7,38.9z M43.7,40.2c-0.9-0.8-2-1.3-3-1.3h-1.4
			c-0.5,0-1.1-0.2-1.5-0.6c-0.4-0.4-0.6-1-0.5-1.6c0.1-1,1-1.8,2.1-1.8h1.6c0.7,0,1.4,0.5,1.4,1.2c0,0,0,0,0.1,0h1.8l0.1-0.1
			c-0.2-1.7-1.5-3-3.1-3.2l-0.4,0v-2c0-0.1-0.1-0.1-0.1-0.1h-1.8c-0.1,0-0.1,0.1-0.1,0.1v2l-0.4,0.1c-2.1,0.4-3.6,2.3-3.3,4.4
			c0.2,2,2.1,3.7,4.2,3.7h1.2c0.6,0,1.1,0.2,1.5,0.6c0.4,0.4,0.6,1,0.5,1.6c-0.1,1-1,1.8-2.1,1.8H39c-0.7,0-1.3-0.5-1.4-1.2
			c0,0,0,0-0.1,0h-1.8l-0.1,0.1c0.2,1.7,1.5,3,3.2,3.2l0.4,0.1v2c0,0.1,0.1,0.1,0.1,0.1h1.8c0.1,0,0.1-0.1,0.1-0.1V47l0.3-0.1
			c1.8-0.4,3.2-1.9,3.4-3.6C44.9,42.2,44.5,41.1,43.7,40.2z M43.7,40.2c-0.9-0.8-2-1.3-3-1.3h-1.4c-0.5,0-1.1-0.2-1.5-0.6
			c-0.4-0.4-0.6-1-0.5-1.6c0.1-1,1-1.8,2.1-1.8h1.6c0.7,0,1.4,0.5,1.4,1.2c0,0,0,0,0.1,0h1.8l0.1-0.1c-0.2-1.7-1.5-3-3.1-3.2l-0.4,0
			v-2c0-0.1-0.1-0.1-0.1-0.1h-1.8c-0.1,0-0.1,0.1-0.1,0.1v2l-0.4,0.1c-2.1,0.4-3.6,2.3-3.3,4.4c0.2,2,2.1,3.7,4.2,3.7h1.2
			c0.6,0,1.1,0.2,1.5,0.6c0.4,0.4,0.6,1,0.5,1.6c-0.1,1-1,1.8-2.1,1.8H39c-0.7,0-1.3-0.5-1.4-1.2c0,0,0,0-0.1,0h-1.8l-0.1,0.1
			c0.2,1.7,1.5,3,3.2,3.2l0.4,0.1v2c0,0.1,0.1,0.1,0.1,0.1h1.8c0.1,0,0.1-0.1,0.1-0.1V47l0.3-0.1c1.8-0.4,3.2-1.9,3.4-3.6
			C44.9,42.2,44.5,41.1,43.7,40.2z M43.7,40.2c-0.9-0.8-2-1.3-3-1.3h-1.4c-0.5,0-1.1-0.2-1.5-0.6c-0.4-0.4-0.6-1-0.5-1.6
			c0.1-1,1-1.8,2.1-1.8h1.6c0.7,0,1.4,0.5,1.4,1.2c0,0,0,0,0.1,0h1.8l0.1-0.1c-0.2-1.7-1.5-3-3.1-3.2l-0.4,0v-2
			c0-0.1-0.1-0.1-0.1-0.1h-1.8c-0.1,0-0.1,0.1-0.1,0.1v2l-0.4,0.1c-2.1,0.4-3.6,2.3-3.3,4.4c0.2,2,2.1,3.7,4.2,3.7h1.2
			c0.6,0,1.1,0.2,1.5,0.6c0.4,0.4,0.6,1,0.5,1.6c-0.1,1-1,1.8-2.1,1.8H39c-0.7,0-1.3-0.5-1.4-1.2c0,0,0,0-0.1,0h-1.8l-0.1,0.1
			c0.2,1.7,1.5,3,3.2,3.2l0.4,0.1v2c0,0.1,0.1,0.1,0.1,0.1h1.8c0.1,0,0.1-0.1,0.1-0.1V47l0.3-0.1c1.8-0.4,3.2-1.9,3.4-3.6
			C44.9,42.2,44.5,41.1,43.7,40.2z M43.7,40.2c-0.9-0.8-2-1.3-3-1.3h-1.4c-0.5,0-1.1-0.2-1.5-0.6c-0.4-0.4-0.6-1-0.5-1.6
			c0.1-1,1-1.8,2.1-1.8h1.6c0.7,0,1.4,0.5,1.4,1.2c0,0,0,0,0.1,0h1.8l0.1-0.1c-0.2-1.7-1.5-3-3.1-3.2l-0.4,0v-2
			c0-0.1-0.1-0.1-0.1-0.1h-1.8c-0.1,0-0.1,0.1-0.1,0.1v2l-0.4,0.1c-2.1,0.4-3.6,2.3-3.3,4.4c0.2,2,2.1,3.7,4.2,3.7h1.2
			c0.6,0,1.1,0.2,1.5,0.6c0.4,0.4,0.6,1,0.5,1.6c-0.1,1-1,1.8-2.1,1.8H39c-0.7,0-1.3-0.5-1.4-1.2c0,0,0,0-0.1,0h-1.8l-0.1,0.1
			c0.2,1.7,1.5,3,3.2,3.2l0.4,0.1v2c0,0.1,0.1,0.1,0.1,0.1h1.8c0.1,0,0.1-0.1,0.1-0.1V47l0.3-0.1c1.8-0.4,3.2-1.9,3.4-3.6
			C44.9,42.2,44.5,41.1,43.7,40.2z"/>
	</g>
</g>
</svg>
