<?xml version="1.0" encoding="utf-8"?>
<!-- Generator: Adobe Illustrator 24.3.0, SVG Export Plug-In . SVG Version: 6.00 Build 0)  -->
<svg version="1.1" id="Layer_1" xmlns="http://www.w3.org/2000/svg" xmlns:xlink="http://www.w3.org/1999/xlink" x="0px" y="0px"
	 viewBox="0 0 80 80" style="enable-background:new 0 0 80 80;" xml:space="preserve">
<style type="text/css">
	.st0{opacity:0;fill:none;}
	.st1{fill:#223659;}
</style>
<g>
	<rect y="0" class="st0" width="80" height="80"/>
	<g>
		<path class="st1" d="M63.3,36.4c-0.8,0-1.5,0.7-1.5,1.5V40c0,12-9.8,21.8-21.8,21.8c-5.8,0-11.3-2.3-15.4-6.4
			c-4.1-4.1-6.4-9.6-6.4-15.4s2.3-11.3,6.4-15.4c4.1-4.1,9.6-6.4,15.4-6.4c3.2,0,6.1,0.6,8.8,1.9c0.4,0.1,0.8,0.2,1.2,0
			c0.4-0.1,0.6-0.4,0.8-0.8c0.2-0.4,0.2-0.8,0-1.2c-0.1-0.4-0.4-0.6-0.8-0.8c-3.1-1.4-6.5-2.2-10.1-2.2c-6.5,0-12.8,2.6-17.5,7.2
			c-4.7,4.7-7.2,10.9-7.2,17.5c0,6.7,2.6,12.9,7.2,17.6c4.7,4.7,10.9,7.2,17.5,7.2c13.6,0,24.8-11.1,24.8-24.7v-2.1
			C64.8,37.1,64.1,36.4,63.3,36.4z M64.4,20.4c-0.6-0.6-1.6-0.6-2.1,0L40,42.6l-5.9-5.9c-0.3-0.3-0.7-0.4-1.1-0.4s-0.8,0.1-1.1,0.4
			c-0.3,0.3-0.4,0.6-0.4,1c0,0.4,0.2,0.8,0.4,1.1l7,7c0.5,0.5,1.6,0.5,2,0l23.4-23.3c0.3-0.3,0.4-0.6,0.4-1.1
			C64.8,21,64.6,20.6,64.4,20.4z"/>
	</g>
</g>
</svg>
