<svg width="60" height="60" viewBox="0 0 60 60" fill="none" xmlns="http://www.w3.org/2000/svg">
<path fill-rule="evenodd" clip-rule="evenodd" d="M34.3499 37.5825L42.0977 45.3309C42.9898 46.223 44.4383 46.223 45.3304 45.3309C46.2224 44.4389 46.2224 42.9904 45.3304 42.0983L37.5819 34.3505C39.0454 32.2523 39.9041 29.702 39.9041 26.952C39.9041 19.803 34.1008 14 26.952 14C19.8032 14 14 19.8032 14 26.952C14 34.1008 19.8032 39.9041 26.952 39.9041C29.7017 39.9041 32.2517 39.0454 34.3505 37.5819L34.3499 37.5825ZM36.6317 35.5549C36.2942 35.9342 35.9345 36.2939 35.5545 36.6322L43.175 44.2527C43.4729 44.5506 43.955 44.5506 44.2522 44.2527C44.5502 43.9555 44.5502 43.4733 44.2522 43.1754L36.6317 35.5549ZM26.9515 15.5238C33.2594 15.5238 38.38 20.6444 38.38 26.9522C38.38 33.2601 33.2594 38.3807 26.9515 38.3807C20.6437 38.3807 15.5231 33.2601 15.5231 26.9522C15.5231 20.6444 20.6437 15.5238 26.9515 15.5238ZM27.7135 17.8095C27.7135 17.3888 27.3722 17.0475 26.9515 17.0475C21.4811 17.0475 17.0466 21.4816 17.0466 26.9524C17.0466 32.4189 21.4846 36.8572 26.9515 36.8572C32.4219 36.8572 36.8564 32.4231 36.8564 26.9524C36.8564 26.5317 36.5151 26.1904 36.0944 26.1904H27.7138V17.8097L27.7135 17.8095ZM27.3242 27.7143H35.298C34.9133 31.9854 31.3233 35.3335 26.9513 35.3335C25.2858 35.3335 23.7337 34.8468 22.4287 34.0078L27.3238 27.7145L27.3242 27.7143ZM26.1898 26.6911L21.2276 33.0712C19.5935 31.5421 18.5707 29.3653 18.5707 26.9524C18.5707 22.5807 21.9184 18.9903 26.1899 18.6057L26.1898 26.6911ZM30.7612 24.6667V23.143C30.7612 22.7223 30.4198 22.381 29.9992 22.381C29.5785 22.381 29.2372 22.7223 29.2372 23.143V24.6667C29.2372 25.0873 29.5785 25.4287 29.9992 25.4287C30.4198 25.4287 30.7612 25.0873 30.7612 24.6667ZM35.3326 24.6667V21.619C35.3326 21.1983 34.9912 20.857 34.5706 20.857C34.1499 20.857 33.8086 21.1983 33.8086 21.619V24.6667C33.8086 25.0873 34.1499 25.4287 34.5706 25.4287C34.9912 25.4287 35.3326 25.0873 35.3326 24.6667ZM33.0469 24.6667V19.3333C33.0469 18.9126 32.7055 18.5713 32.2849 18.5713C31.8642 18.5713 31.5229 18.9126 31.5229 19.3333V24.6667C31.5229 25.0873 31.8642 25.4287 32.2849 25.4287C32.7055 25.4287 33.0469 25.0873 33.0469 24.6667Z" fill="#223659" stroke="#223659" stroke-width="0.5"/>
</svg>
