<svg width="60" height="60" viewBox="0 0 60 60" fill="none" xmlns="http://www.w3.org/2000/svg">
<path d="M37.8571 41.5714C37.5162 41.5714 37.189 41.7069 36.948 41.948C36.7069 42.189 36.5714 42.5162 36.5714 42.8571C36.5714 43.539 36.3005 44.1931 35.8184 44.6755C35.3359 45.1577 34.6819 45.4286 34 45.4286H21.1429C20.461 45.4286 19.8069 45.1577 19.3245 44.6755C18.8423 44.1931 18.5714 43.539 18.5714 42.8571V17.1429C18.5714 16.461 18.8423 15.8069 19.3245 15.3245C19.8069 14.8423 20.461 14.5714 21.1429 14.5714H34C34.6819 14.5714 35.336 14.8423 35.8184 15.3245C36.3005 15.8069 36.5714 16.461 36.5714 17.1429V21C36.5714 21.4595 36.8165 21.8839 37.2143 22.1135C37.6121 22.3431 38.1022 22.3431 38.5 22.1135C38.8978 21.8839 39.1429 21.4595 39.1429 21V17.1429C39.1429 15.7788 38.601 14.4707 37.6364 13.5064C36.6722 12.5418 35.364 12 34 12H21.1429C19.7788 12 18.4707 12.5418 17.5064 13.5064C16.5418 14.4707 16 15.7788 16 17.1429V42.8571C16 44.2212 16.5418 45.5293 17.5064 46.4936C18.4707 47.4582 19.7788 48 21.1429 48H34C35.364 48 36.6722 47.4582 37.6364 46.4936C38.601 45.5293 39.1429 44.2212 39.1429 42.8571C39.1429 42.5162 39.0074 42.189 38.7663 41.948C38.5253 41.7069 38.1981 41.5714 37.8571 41.5714Z" fill="#223659"/>
<path d="M26.2857 15.8571C25.8262 15.8571 25.4018 16.1022 25.1722 16.5C24.9426 16.8977 24.9426 17.3879 25.1722 17.7857C25.4018 18.1835 25.8262 18.4285 26.2857 18.4285H28.8571C29.3166 18.4285 29.741 18.1835 29.9706 17.7857C30.2002 17.3879 30.2002 16.8977 29.9706 16.5C29.741 16.1022 29.3166 15.8571 28.8571 15.8571H26.2857Z" fill="#223659"/>
<path d="M44.286 28.7143C44.2886 27.7661 43.9419 26.8503 43.3122 26.1414C42.6826 25.4328 41.8138 24.9808 40.8719 24.8718C39.9304 24.763 38.9813 25.0046 38.2064 25.5511C37.4315 26.0972 36.8848 26.91 36.671 27.8335C36.4572 28.7573 36.5913 29.7273 37.0473 30.5584C37.503 31.3898 38.2492 32.0238 39.1431 32.3401V32.5714C39.1351 34.2695 38.2896 35.854 36.8837 36.8059C35.4777 37.7579 33.6923 37.9545 32.1127 37.3314C30.5334 36.7081 29.363 35.3455 28.9859 33.6901C30.4077 33.3693 31.6784 32.5752 32.5894 31.4373C33.5005 30.2997 33.9979 28.8862 34.0002 27.4286V24.8572C34.0002 24.1753 33.7293 23.5212 33.2472 23.0388C32.7647 22.5567 32.1107 22.2858 31.4288 22.2858H30.1431C29.6836 22.2858 29.2592 22.5309 29.0296 22.9286C28.8 23.3264 28.8 23.8166 29.0296 24.2143C29.2592 24.6121 29.6836 24.8572 30.1431 24.8572H31.4288V27.4286C31.4288 28.8068 30.6935 30.0801 29.5002 30.7689C28.3069 31.458 26.8364 31.458 25.6431 30.7689C24.4498 30.0801 23.7145 28.8068 23.7145 27.4286V24.8572H25.0002C25.4597 24.8572 25.8841 24.6121 26.1137 24.2143C26.3433 23.8166 26.3433 23.3264 26.1137 22.9286C25.8841 22.5309 25.4597 22.2858 25.0002 22.2858H23.7145C23.0326 22.2858 22.3785 22.5567 21.8961 23.0388C21.414 23.5213 21.1431 24.1753 21.1431 24.8572V27.4286C21.1445 28.9273 21.6694 30.3786 22.6274 31.5312C23.585 32.684 24.9156 33.4657 26.3886 33.7416C26.8105 36.3041 28.4932 38.4823 30.8662 39.5373C33.2391 40.5926 35.9835 40.3831 38.1687 38.98C40.3541 37.5769 41.6867 35.1682 41.7145 32.5715V32.3402C42.4647 32.0747 43.1148 31.584 43.575 30.9348C44.0354 30.2856 44.2836 29.5101 44.2859 28.7143L44.286 28.7143ZM40.4288 30C40.0879 30 39.7607 29.8645 39.5197 29.6235C39.2786 29.3824 39.1431 29.0552 39.1431 28.7143C39.1431 28.3733 39.2786 28.0462 39.5197 27.8051C39.7607 27.564 40.0879 27.4286 40.4288 27.4286C40.7698 27.4286 41.097 27.564 41.338 27.8051C41.5791 28.0462 41.7146 28.3733 41.7146 28.7143C41.7146 29.0552 41.5791 29.3824 41.338 29.6235C41.097 29.8645 40.7698 30 40.4288 30Z" fill="#223659"/>
</svg>
