<svg width="60" height="60" viewBox="0 0 60 60" fill="none" xmlns="http://www.w3.org/2000/svg">
<g clip-path="url(#clip0_740_1125)">
<path d="M49.7291 33.4521L48.7428 24.7398C48.6705 24.1137 48.3532 23.5416 47.8605 23.1488C47.3674 22.7561 46.7391 22.5746 46.1127 22.644C45.476 22.7065 44.8901 23.0178 44.4822 23.5106C44.074 24.0031 43.8773 24.6369 43.9347 25.2741L44.551 31.8496L41.7976 35.7533H41.6333L42.6197 32.6711H42.6194C42.9407 31.9158 42.8504 31.0478 42.3806 30.3747C41.9108 29.7013 41.1276 29.3172 40.3075 29.3579C39.4876 29.3986 38.7464 29.8587 38.3456 30.5754L34.5648 36.9039C34.2524 37.3789 34.0944 37.9388 34.1128 38.507L33.9072 48H42.7839L42.9894 43.3974L49.1537 35.5071V35.5068C49.6138 34.9272 49.8211 34.1864 49.7291 33.452L49.7291 33.4521ZM47.8799 34.4384L41.3865 42.7808L41.2223 46.3561H35.5922L35.7565 38.5068V38.5071C35.7476 38.258 35.8196 38.0129 35.962 37.8082L39.7838 31.4383V31.4386C39.9925 31.1523 40.3749 31.0542 40.6957 31.2044C41.0164 31.3549 41.1856 31.7115 41.099 32.055L39.4553 37.2329L42.6197 37.4795L46.2772 32.3425L45.5784 25.1098C45.5672 24.9025 45.6389 24.6996 45.7776 24.5453C45.9166 24.3911 46.111 24.2985 46.3182 24.2879C46.7121 24.2636 47.0558 24.5531 47.0991 24.9455L48.0442 33.6578C48.0872 33.9481 48.0133 34.2437 47.8387 34.4796L47.8799 34.4384Z" fill="#00856f" stroke="#00856f" stroke-width="0.5"/>
<path d="M17.7569 43.356L17.9624 47.9586H26.8391L26.6335 38.4656C26.6585 37.9155 26.5151 37.3708 26.2228 36.9039L22.3597 30.5343C21.959 29.8176 21.2177 29.3575 20.3975 29.3168C19.5777 29.2758 18.7942 29.66 18.3244 30.3333C17.8546 31.0067 17.7646 31.8744 18.0856 32.6301L19.072 35.7122H18.9077L16.1543 31.8082L16.7706 25.2328C16.8286 24.6021 16.6373 23.9741 16.2377 23.4824C15.8384 22.9911 15.2628 22.6752 14.6336 22.6027H14.5926C13.9729 22.5448 13.3551 22.7317 12.8712 23.1233C12.3874 23.5151 12.076 24.0804 12.0035 24.6988L11.0172 33.4521C10.9363 34.1731 11.143 34.8966 11.5925 35.4659L17.7569 43.356ZM12.6612 33.6575L13.6473 24.9041C13.6906 24.5117 14.0343 24.2224 14.4282 24.2468H14.4695C14.8846 24.2898 15.1922 24.6518 15.1681 25.0686L14.4695 32.3014L18.127 37.4383L21.2914 37.1918L19.6884 32.0959V32.0136V32.0139C19.5586 31.6602 19.7151 31.2654 20.0519 31.0969C20.389 30.9283 20.7987 31.0401 21.0036 31.3563L24.8254 37.7671C24.9475 37.9638 25.0051 38.1937 24.9899 38.4247L25.1542 46.274H19.5242L19.3599 42.6987L12.9078 34.4796C12.7186 34.25 12.6297 33.9536 12.6612 33.6578L12.6612 33.6575Z" fill="#00856f" stroke="#00856f" stroke-width="0.5"/>
<path d="M31.1952 15.9454H29.5516V19.3563H26.1406V21H29.5516V24.4519H31.1952V21H34.6062V19.3563H31.1952V15.9454Z" fill="#00856f" stroke="#00856f" stroke-width="0.5"/>
<path d="M38.5511 20.1782C38.5511 18.0093 37.6895 15.929 36.1558 14.3954C34.6222 12.8618 32.5419 12 30.373 12C28.2041 12 26.1239 12.8617 24.5902 14.3954C23.0566 15.929 22.1948 18.0093 22.1948 20.1782C22.1948 22.3471 23.0565 24.4273 24.5902 25.961C26.1238 27.4946 28.2041 28.3563 30.373 28.3563C32.5419 28.3563 34.6221 27.4946 36.1558 25.961C37.6894 24.4274 38.5511 22.3471 38.5511 20.1782ZM30.3731 26.7123C28.6403 26.7123 26.9782 26.024 25.7527 24.7985C24.5273 23.5731 23.839 21.911 23.839 20.1782C23.839 18.4453 24.5273 16.7832 25.7527 15.5578C26.9782 14.3323 28.6403 13.644 30.3731 13.644C32.106 13.644 33.7681 14.3323 34.9935 15.5578C36.219 16.7832 36.9072 18.4453 36.9072 20.1782C36.9072 21.911 36.219 23.5731 34.9935 24.7985C33.7681 26.024 32.106 26.7123 30.3731 26.7123Z" fill="#223659" stroke="#223659" stroke-width="0.5"/>
</g>
<defs>
<clipPath id="clip0_740_1125">
<rect width="40" height="40" fill="white" transform="translate(10 10)"/>
</clipPath>
</defs>
</svg>
